<?xml version="1.0" standalone="no"?>
<svg xmlns="http://www.w3.org/2000/svg" viewBox="0 0 101.422 117.112" width="101.422" height="117.112"><polygon fill="#3e0045" points="101.422,29.278 101.422,87.834 50.711,117.112 0,87.834 0,29.278 50.711,0"></polygon><g fill="white" color="white" transform="translate(28.711 22.5) scale(0.44)"><svg width="100.0" height="100.0" x="0.0" y="0.0" viewBox="0 0 100 100"><g><g><path d="M22.958,88.083h57.658 M82.942,88.331c1.234,0,2.323-1,2.323-2.238V52.198c0.93,0.211,1.284,0.334,1.957,0.334    c3.906,0,6.817-4.028,7.015-6.667l0.112-1.245h-0.097c0.005,0,0.013-0.231-0.026-0.359c-0.059-0.19-0.176-0.321-0.312-0.444    L84.18,11.924c-0.143-0.469-0.576-0.782-1.068-0.782H20.464c-0.493,0-0.929,0.324-1.071,0.797l-9.59,31.799    c-0.224,0.151-0.399,0.336-0.479,0.603c-0.03,0.107-0.018,0.279-0.018,0.279H9.224l0.091,1.246    c0.199,2.638,3.128,6.646,7.035,6.646c0.674,0,1.028-0.104,1.958-0.314v33.895c0,1.238,1.091,2.238,2.326,2.238 M70.612,44.62    l-4.2-31.618h6.708l6.994,31.618H70.612z M47.05,44.62l1.389-31.618h6.446l1.327,31.618H47.05z M23.523,44.62l6.919-31.618h6.751    L32.911,44.62H23.523z M22.957,72.521V49.557c0.93,1.639,3.045,2.978,5.306,2.978c2.572,0,4.634-1.735,5.849-3.668    c1.213,1.933,3.308,3.668,5.881,3.668c2.572,0,4.684-1.735,5.896-3.668c1.213,1.933,3.332,3.668,5.906,3.668    c2.572,0,4.696-1.735,5.91-3.668c1.212,1.933,3.337,3.668,5.908,3.668c2.575,0,4.7-1.735,5.915-3.668    c1.212,1.933,3.208,3.668,5.782,3.668c2.262,0,4.374-1.339,5.304-2.978v22.965H22.957z"></path></g></g></svg></g><path fill="white" fill-rule="nonzero" d="M7.45 18.65L7.45 2.38Q6.17 2.38 5.02 2.47Q3.88 2.57 2.95 2.69Q2.01 2.82 1.32 2.93Q0.63 3.05 0.26 3.10L0.26 3.10Q0.26 3.09 0.23 2.93Q0.19 2.76 0.14 2.50Q0.08 2.24 0.04 1.95Q0 1.65 0 1.44L0 1.44Q0 0.98 0.40 0.77Q0.81 0.56 1.50 0.49Q2.20 0.41 3.13 0.43Q4.06 0.45 5.13 0.45L5.13 0.45L9.13 0.45Q9.76 0.45 10.68 0.45Q11.59 0.45 12.72 0.41Q13.85 0.37 15.14 0.27Q16.43 0.18 17.79 0L17.79 0L17.79 0Q17.79 0.01 17.83 0.14Q17.87 0.27 17.91 0.49Q17.95 0.70 17.99 0.96Q18.03 1.23 18.03 1.52L18.03 1.52Q18.03 1.86 17.79 2.05Q17.55 2.24 17.16 2.33Q16.76 2.42 16.25 2.44Q15.74 2.46 15.18 2.46L15.18 2.46Q13.62 2.46 12.54 2.43Q11.46 2.41 10.68 2.38L10.68 2.38L10.68 15.46Q10.68 16.34 10.73 17.01Q10.77 17.68 10.84 18.18Q10.91 18.68 10.98 19.01Q11.05 19.35 11.09 19.55L11.09 19.55Q10.88 19.66 10.64 19.75Q10.39 19.84 10.12 19.90Q9.86 19.96 9.60 19.99Q9.34 20.02 9.11 20.02L9.11 20.02Q8.75 20.02 8.44 19.95Q8.13 19.88 7.92 19.72Q7.70 19.56 7.57 19.30Q7.45 19.04 7.45 18.65L7.45 18.65ZM24.92 0.90L24.92 17.84L27.40 17.84Q29.23 17.84 31.08 17.60Q32.92 17.35 34.70 16.78L34.70 16.78Q34.70 16.79 34.74 16.92Q34.78 17.05 34.84 17.27Q34.89 17.49 34.94 17.77Q34.99 18.05 34.99 18.32L34.99 18.32Q34.99 18.92 34.68 19.25Q34.37 19.58 33.65 19.73Q32.94 19.88 31.75 19.91Q30.57 19.93 28.82 19.93L28.82 19.93Q27.89 19.93 26.95 19.92Q26.02 19.91 25.20 19.89Q24.39 19.87 23.75 19.83Q23.12 19.80 22.78 19.77L22.78 19.77Q22.13 19.71 21.92 19.45Q21.71 19.18 21.71 18.59L21.71 18.59L21.71 1.90L19.07 1.90L19.07 0.82Q19.28 0.71 19.69 0.60Q20.10 0.49 20.64 0.40Q21.18 0.30 21.82 0.25Q22.46 0.19 23.13 0.19L23.13 0.19Q23.67 0.19 24.01 0.21Q24.35 0.22 24.55 0.28Q24.76 0.34 24.84 0.49Q24.92 0.64 24.92 0.90L24.92 0.90ZM50.67 19.32L48.62 14.56L40.28 14.56Q40.07 15.29 39.96 16.02Q39.85 16.75 39.85 17.47L39.85 17.47Q39.85 17.98 39.91 18.46Q39.96 18.94 40.09 19.37L40.09 19.37L37.95 19.96Q37.63 20.04 37.34 20.04L37.34 20.04Q36.50 20.04 36.50 19.24L36.50 19.24Q36.50 19.17 36.52 19.13Q36.53 19.09 36.53 19.02L36.53 19.02Q36.65 17.99 37.04 16.65Q37.43 15.30 37.99 13.79Q38.55 12.29 39.22 10.72Q39.89 9.15 40.58 7.66Q41.26 6.18 41.90 4.87Q42.55 3.55 43.05 2.57Q43.54 1.59 43.85 1.02Q44.15 0.45 44.15 0.45L44.15 0.45L45.54 0.45Q45.88 0.45 46.13 0.50Q46.38 0.55 46.56 0.67Q46.74 0.79 46.89 1.01Q47.03 1.23 47.17 1.57L47.17 1.57L53.47 17.58L55.88 16.64L56.33 17.61Q55.99 17.92 55.47 18.35Q54.95 18.79 54.34 19.17Q53.73 19.56 53.08 19.84Q52.43 20.11 51.84 20.11L51.84 20.11Q51.46 20.11 51.16 19.93Q50.86 19.76 50.67 19.32L50.67 19.32ZM44.63 3.58L44.47 3.58Q43.87 4.98 43.31 6.24Q42.74 7.51 42.24 8.64Q41.74 9.78 41.35 10.79Q40.96 11.81 40.73 12.69L40.73 12.69L47.92 12.69L44.63 3.58Z" transform="translate(22.547, 74.5)"></path></svg>